:FULLY-SPECIFIED
:FORCE-ALL-JOINTS-BE-3DOF
:DEGREES
2141
root -2.57591 15.2132 -0.152963 903.248 6.91729 184.562
lfemur -54.9983 13.3778 -25.0946
ltibia 53.9072 0 0
lfoot 0.805157 22.6504 0
ltoes 4.00888 0 0
rfemur 0.282981 -0.180979 22.838
rtibia 67.0485 0 0
rfoot 7.70191 17.7424 0
rtoes -22.5034 0 0
lowerback 10.3948 0.0920907 -1.32772
upperback -1.33594 0.282316 3.11141
thorax -7.2803 0.292497 3.98468
lowerneck -5.1812 0.437834 -4.28868
upperneck 4.71231 0.800087 2.26391
head 2.38505 0.395502 1.51098
lclavicle 1.51611e-014 -1.90895e-014 0
lhumerus 51.4996 1.91959 102.575
lradius 17.0942 0 0
lwrist -46.3181 0 0
lhand -32.6549 378.264 0
lfingers 7.12502 0 0
lthumb -5.88099 -311.836 0
rclavicle 1.51611e-014 -1.90895e-014 0
rhumerus -59.9809 18.9366 -92.3637
rradius 109.791 0 0
rwrist -70.4046 0 0
rhand -15.2557 -392.768 0
rfingers 7.12502 0 0
rthumb 10.9182 297.536 0
2142
root -2.56886 15.2093 -0.443952 903.065 6.53272 184.332
lfemur -54.2222 13.2439 -25.3156
ltibia 53.9652 0 0
lfoot 0.529847 23.1473 0
ltoes 4.79124 0 0
rfemur -0.395208 -0.358077 22.447
rtibia 67.8843 0 0
rfoot 8.78355 18.2478 0
rtoes -21.8124 0 0
lowerback 10.4259 0.0329102 -1.63183
upperback -1.26932 0.144531 3.08639
thorax -7.21907 0.236157 4.15857
lowerneck -5.2418 0.427708 -4.33724
upperneck 4.72301 0.788008 2.23988
head 2.39485 0.385681 1.50741
lclavicle 1.43694e-014 -1.96345e-014 0
lhumerus 51.8932 2.15878 103.075
lradius 15.5349 0 0
lwrist -46.4374 0 0
lhand -32.6791 390.268 0
lfingers 7.12502 0 0
lthumb -5.90442 -299.834 0
rclavicle 1.43694e-014 -1.96345e-014 0
rhumerus -61.6896 18.1683 -93.0125
rradius 109.606 0 0
rwrist -70.4573 0 0
rhand -15.3835 -393.067 0
rfingers 7.12502 0 0
rthumb 10.7951 297.229 0
2143
root -2.5618 15.2055 -0.734941 902.871 6.12727 184.092
lfemur -53.4469 13.0892 -25.5282
ltibia 54.0159 0 0
lfoot 0.18855 23.5751 0
ltoes 5.22427 0 0
rfemur -1.33383 -0.556961 22.1025
rtibia 68.7636 0 0
rfoot 9.54346 18.4854 0
rtoes -21.136 0 0
lowerback 10.4867 -0.0204328 -1.93176
upperback -1.20673 0.0137355 3.05488
thorax -7.17732 0.182604 4.32251
lowerneck -5.29888 0.402811 -4.38228
upperneck 4.77636 0.75439 2.22752
head 2.41728 0.365493 1.50544
lclavicle 1.36292e-014 -2.00773e-014 0
lhumerus 52.259 2.19995 103.314
lradius 14.3467 0 0
lwrist -46.2747 0 0
lhand -32.7055 400.089 0
lfingers 7.12502 0 0
lthumb -5.92989 -290.014 0
rclavicle 1.36292e-014 -2.00773e-014 0
rhumerus -62.9357 17.5814 -93.5162
rradius 109.652 0 0
rwrist -70.5012 0 0
rhand -15.3814 -393.275 0
rfingers 7.12502 0 0
rthumb 10.7969 297.023 0
2144
root -2.53873 15.2127 -0.972574 902.663 5.69483 183.826
lfemur -52.6448 12.9058 -25.7536
ltibia 54.103 0 0
lfoot -0.228776 23.9432 0
ltoes 5.313 0 0
rfemur -2.6426 -0.791983 21.8168
rtibia 69.8086 0 0
rfoot 9.94891 18.4385 0
rtoes -20.4422 0 0
lowerback 10.5867 -0.0681782 -2.2391
upperback -1.14315 -0.113661 3.01417
thorax -7.15465 0.130312 4.48122
lowerneck -5.35463 0.362778 -4.42243
upperneck 4.86536 0.699287 2.22898
head 2.44988 0.335267 1.50591
lclavicle 1.28859e-014 -2.04506e-014 0
lhumerus 52.628 2.03423 103.273
lradius 13.4638 0 0
lwrist -45.8454 0 0
lhand -32.7303 407.967 0
lfingers 7.12502 0 0
lthumb -5.95385 -282.136 0
rclavicle 1.28859e-014 -2.04506e-014 0
rhumerus -63.7641 17.1651 -93.884
rradius 109.974 0 0
rwrist -70.5733 0 0
rhand -15.2209 -393.4 0
rfingers 7.12502 0 0
rthumb 10.9512 296.913 0
2145
root -2.51567 15.2198 -1.21021 902.44 5.22956 183.521
lfemur -51.7867 12.6883 -26.0098
ltibia 54.2686 0 0
lfoot -0.724848 24.2677 0
ltoes 5.10135 0 0
rfemur -4.38769 -1.072 21.5927
rtibia 71.1159 0 0
rfoot 10.0129 18.1238 0
rtoes -19.6972 0 0
lowerback 10.7302 -0.111112 -2.56507
upperback -1.07372 -0.241558 2.96256
thorax -7.14826 0.0776707 4.64016
lowerneck -5.41118 0.308086 -4.45762
upperneck 4.97918 0.623958 2.24496
head 2.48918 0.295811 1.50948
lclavicle 1.20851e-014 -2.07938e-014 0
lhumerus 53.0154 1.67517 102.973
lradius 12.7933 0 0
lwrist -45.1912 0 0
lhand -32.7479 414.368 0
lfingers 7.12502 0 0
lthumb -5.97081 -275.734 0
rclavicle 1.20851e-014 -2.07938e-014 0
rhumerus -64.2591 16.8843 -94.1377
rradius 110.571 0 0
rwrist -70.6974 0 0
rhand -14.8935 -393.463 0
rfingers 7.12502 0 0
rthumb 11.266 296.88 0
2146
root -2.4926 15.227 -1.44784 902.201 4.7327 183.18
lfemur -50.876 12.4398 -26.2915
ltibia 54.5045 0 0
lfoot -1.29311 24.5516 0
ltoes 4.61442 0 0
rfemur -6.52177 -1.39095 21.4219
rtibia 72.6482 0 0
rfoot 9.77154 17.5663 0
rtoes -18.9053 0 0
lowerback 10.9126 -0.149557 -2.90748
upperback -0.99936 -0.369562 2.90116
thorax -7.15662 0.0248756 4.79907
lowerneck -5.46809 0.239359 -4.48892
upperneck 5.11645 0.5292 2.27416
head 2.53493 0.247389 1.51588
lclavicle 1.1236e-014 -2.11058e-014 0
lhumerus 53.4056 1.13918 102.443
lradius 12.3283 0 0
lwrist -44.3267 0 0
lhand -32.7574 419.405 0
lfingers 7.12502 0 0
lthumb -5.98006 -270.697 0
rclavicle 1.1236e-014 -2.11058e-014 0
rhumerus -64.4395 16.7249 -94.2841
rradius 111.405 0 0
rwrist -70.8588 0 0
rhand -14.4176 -393.471 0
rfingers 7.12502 0 0
rthumb 11.7239 296.915 0
2147
root -2.46954 15.2342 -1.68547 901.949 4.20546 182.81
lfemur -49.9162 12.1633 -26.593
ltibia 54.8024 0 0
lfoot -1.92701 24.7979 0
ltoes 3.87729 0 0
rfemur -8.99753 -1.74277 21.2963
rtibia 74.3681 0 0
rfoot 9.26066 16.7911 0
rtoes -18.0706 0 0
lowerback 11.1288 -0.183838 -3.26412
upperback -0.921027 -0.497282 2.83108
thorax -7.17819 -0.0278759 4.95768
lowerneck -5.52494 0.157219 -4.51742
upperneck 5.27581 0.415809 2.3153
head 2.58686 0.190264 1.52484
lclavicle 1.03478e-014 -2.13857e-014 0
lhumerus 53.7827 0.442672 101.711
lradius 12.0615 0 0
lwrist -43.2669 0 0
lhand -32.7583 423.187 0
lfingers 7.12502 0 0
lthumb -5.98088 -266.913 0
rclavicle 1.03478e-014 -2.13857e-014 0
rhumerus -64.3239 16.6726 -94.33
rradius 112.436 0 0
rwrist -71.0426 0 0
rhand -13.8112 -393.43 0
rfingers 7.12502 0 0
rthumb 12.3072 297.01 0
